<?xml version="1.0" encoding="utf-8"?>
<!-- Designed by Vexels.com - 2016 All Rights Reserved - https://vexels.com/terms-and-conditions/  -->

<svg version="1.1" id="Capa_1" xmlns="http://www.w3.org/2000/svg" xmlns:xlink="http://www.w3.org/1999/xlink" x="0px" y="0px"
	 width="1200px" height="1200px" viewBox="0 0 1200 1200" enable-background="new 0 0 1200 1200" xml:space="preserve">
<g id="VEXELS">
</g>
<g>
	<g id="BACKGROUND">
		<g>
			<path fill="#6F3FAA" d="M599.999,50.001C903.753,50.001,1150,296.244,1150,600c0,303.753-246.246,549.999-550.001,549.999
				S50,903.753,50,600C50,296.244,296.244,50.001,599.999,50.001z"/>
			<g>
				<path fill="#FFFFFF" d="M433.863,836.785c-95.632-27.773-138.484-96.857-151.076-188.786
					c-8.971-65.509-7.596-131.247,3.819-196.521c6.091-34.795,18.134-67.441,38.397-96.77
					c28.421-41.167,70.586-61.027,116.397-74.768c68.466-20.521,138.782-22.165,209.382-18.128
					c43.611,2.505,86.184,10.612,127.857,24.567c73.443,24.604,114.744,76.361,131.951,150.112
					c15.533,66.478,14.582,133.446,7.832,200.77c-2.996,29.967-8.146,59.354-19.762,87.242
					c-25.203,60.426-71.057,96.413-133.512,113.449c-68.311,18.637-137.689,24.323-208.096,19.424
					c-7.318-0.512-12.074,1.218-16.957,6.948c-16.15,18.97-32.992,37.33-49.615,55.864c-2.588,2.899-5.363,5.644-8.195,8.312
					c-9.257,8.721-19.691,14.969-32.604,9.276c-12.795-5.653-15.621-17.641-15.76-30.213
					C433.682,884.232,433.863,860.905,433.863,836.785z M455.353,916.364c1.261,0.415,2.521,0.821,3.785,1.236
					c4.26-3.812,8.98-7.209,12.705-11.499c25.792-29.677,51.62-59.344,76.873-89.475c5.852-6.986,11.72-9.722,20.807-9.345
					c57.004,2.3,113.131-2.981,168.908-16.118c65.615-15.462,108.279-53.546,122.678-119.456
					c15.936-72.931,17.076-146.519,1.184-219.866c-13.707-63.258-50.115-105.079-113.859-122.768
					c-47.256-13.123-95.09-18.506-143.939-19.011c-49.256-0.505-97.756,3.124-145.365,16.802
					c-63.436,18.27-105.412,57.909-119.617,122.758c-15.803,72.148-17.256,145.361-2.469,217.751
					c12.063,58.977,47.003,100.877,105.525,120.176c9.173,3.034,12.077,7.199,11.874,16.408c-0.737,32.319-0.88,64.645-1.01,96.974
					C453.422,906.072,454.683,911.223,455.353,916.364z"/>
				<path fill="#FFFFFF" d="M417.353,458.848c3.861-7.586,7.081-18.484,13.895-26.169c9.409-10.612,20.88-19.8,32.68-27.771
					c13.427-9.074,26.432-6.755,36.252,5.883c13.834,17.781,27.35,35.891,39.676,54.736c12.479,19.112,9.425,32.44-8.268,46.375
					c-18.138,14.293-19.969,20.506-10.404,41.773c20.216,45.006,51.391,78.281,100.088,92.825
					c10.039,3.005,17.268,0.154,23.732-7.258c25.695-29.521,31.176-30.647,64.012-9.122c15.578,10.225,30.189,21.994,44.68,33.735
					c10.615,8.601,12.895,19.104,6.895,31.319c-8.75,17.771-21.375,32.508-38.412,42.926c-12.037,7.354-24.941,7.691-38.031,2.561
					c-96.277-37.765-176.591-94.935-226.602-188.204c-13.008-24.253-24.056-49.576-35.608-74.593
					C419.723,473.072,419.349,467.416,417.353,458.848z"/>
				<path fill="#FFFFFF" d="M610.162,381.488c76.762,2.426,156.41,61.344,163.387,163.459c0.424,6.185,1.498,12.359,1.6,18.554
					c0.119,6.948-3.156,13.538-10.355,12.524c-3.885-0.551-8.996-7.151-9.842-11.723c-2.963-15.947-2.725-32.575-6.518-48.27
					c-15.877-65.637-71.355-110.83-138.895-114.52c-4.639-0.254-9.781,0.143-13.751-1.742c-3.929-1.846-6.667-6.203-9.919-9.47
					c3.761-3.216,7.08-7.412,11.42-9.347C600.419,379.557,604.88,381.143,610.162,381.488z"/>
				<path fill="#FFFFFF" d="M729.222,538.427c0,2.341-0.045,4.675,0.01,7.006c0.164,6.852-1.102,12.917-9.654,12.874
					c-8.234-0.051-10.35-6.146-10.258-12.826c0.305-21.637-4.967-41.551-17.66-59.227c-17.703-24.641-42.598-36.512-72.051-40.133
					c-3.084-0.375-7.104,0.396-9.055-1.285c-3.635-3.083-6.07-7.586-9.008-11.488c3.697-2.766,7.549-8.109,11.084-7.897
					c56.33,3.334,101.27,35.792,113.861,91.099c1.619,7.139,2.262,14.504,3.367,21.779
					C729.646,538.366,729.433,538.397,729.222,538.427z"/>
				<path fill="#FFFFFF" d="M685.136,534.131c-1.555,1.684-4.908,8.589-9.344,9.367c-8.186,1.43-10.244-6.086-11.047-13.162
					c-2.787-24.635-11.527-33.936-35.783-38.402c-1.15-0.203-2.285-0.52-3.439-0.658c-7.152-0.853-12.959-4.554-10.23-11.856
					c1.436-3.854,8.605-8.183,12.936-7.935C661.349,473.379,683.195,496.192,685.136,534.131z"/>
			</g>
			<path opacity="0.2" enable-background="new    " d="M858.968,335.604c25.391,26.401,42.168,60.317,51.637,100.871
				c15.52,66.492,14.582,133.453,7.838,200.808c-3.006,29.938-8.166,59.353-19.781,87.213
				c-25.193,60.455-71.047,96.403-133.492,113.479c-53.912,14.659-108.463,21.332-163.633,21.037
				c-14.787-0.038-29.62-0.608-44.488-1.623c-7.307-0.526-12.064,1.208-16.941,6.938c-16.124,18.97-32.986,37.34-49.596,55.864
				c-2.602,2.89-5.363,5.644-8.205,8.33c-9.267,8.702-19.706,14.95-32.629,9.258c-2.394-1.054-4.428-2.357-6.17-3.813
				l158.029,158.032l55.131,55.126c268.646-27.507,480.059-248.382,492.732-521.091L858.968,335.604z"/>
			<g>
				<path opacity="0.1" enable-background="new    " d="M918.443,637.282c-3.006,29.938-8.166,59.353-19.781,87.213
					c-25.197,60.455-71.057,96.403-133.496,113.479c-53.908,14.659-108.469,21.332-163.633,21.037v-51.23
					c46.07-0.444,91.605-5.924,136.898-16.607c65.615-15.471,108.27-53.545,122.697-119.445
					c15.926-72.96,17.057-146.525,1.17-219.856c-13.723-63.297-50.131-105.089-113.865-122.773
					c-47.256-13.111-95.109-18.516-143.939-19.008c-0.975,0-1.984-0.041-2.967,0v-49.963c16.371,0.113,32.822,0.762,49.232,1.703
					c43.625,2.475,86.207,10.602,127.891,24.574c29.855,9.953,54.357,24.456,74.139,43.061c0.492,0.493,1.016,0.936,1.508,1.469
					l4.668,4.676c25.391,26.4,42.172,60.316,51.637,100.869C926.125,502.971,925.187,569.928,918.443,637.282z"/>
				<path opacity="0.1" enable-background="new    " d="M685.136,534.131c-1.551,1.662-4.918,8.61-9.35,9.381
					c-8.16,1.421-10.238-6.086-11.041-13.162c-2.811-24.658-11.537-33.955-35.793-38.432c-1.131-0.203-2.275-0.531-3.41-0.659
					c-7.146-0.841-13.008-4.542-10.234-11.854c1.42-3.854,8.609-8.163,12.92-7.927C661.375,473.359,683.179,496.183,685.136,534.131
					z"/>
			</g>
			<path opacity="0.1" enable-background="new    " d="M760.58,695.176c-8.74,17.781-21.365,32.498-38.402,42.936
				c-12.018,7.354-24.932,7.673-38.021,2.561c-29.131-11.422-56.836-24.656-82.629-40.094v-61.432
				c6.209,2.852,12.795,5.286,19.738,7.354c10.035,3,17.264,0.154,23.725-7.276c25.719-29.493,31.199-30.624,64.025-9.099
				c15.559,10.2,30.193,21.984,44.684,33.716C764.31,672.467,766.58,682.98,760.58,695.176z"/>
			<path opacity="0.1" enable-background="new    " d="M729.859,538.318c-0.203,0.048-0.443,0.089-0.646,0.123
				c0,2.312-0.045,4.664,0,6.977c0.164,6.871-1.098,12.928-9.625,12.884c-8.254-0.041-10.359-6.136-10.283-12.835
				c0.33-21.605-4.951-41.561-17.625-59.229c-17.713-24.625-42.617-36.488-72.07-40.101c-3.084-0.405-7.113,0.364-9.051-1.308
				c-3.619-3.082-6.055-7.586-9.021-11.486c3.697-2.767,7.549-8.092,11.09-7.889c56.344,3.334,101.277,35.791,113.869,91.088
				C728.115,523.688,728.763,531.039,729.859,538.318z"/>
			<path opacity="0.1" enable-background="new    " d="M775.162,563.511c0.115,6.938-3.18,13.517-10.369,12.505
				c-3.895-0.531-9.006-7.142-9.828-11.703c-2.967-15.967-2.719-32.576-6.531-48.26c-15.887-65.646-71.346-110.869-138.895-114.561
				c-2.6-0.123-5.363-0.077-8.006-0.326v-20.755c2.475,0.213,5.406,0.901,8.605,1.104c76.785,2.385,156.441,61.332,163.4,163.427
				C773.972,551.15,775.037,557.287,775.162,563.511z"/>
			<line fill="none" x1="601.527" y1="807.775" x2="601.527" y2="700.578"/>
			<line fill="none" x1="601.527" y1="380.406" x2="601.527" y2="310.085"/>
			<polyline fill="none" points="601.527,401.161 601.527,433.341 601.527,639.146 			"/>
		</g>
	</g>
</g>
</svg>
